<svg xmlns="http://www.w3.org/2000/svg" version="1.1" xmlns:xlink="http://www.w3.org/1999/xlink" width="200" height="200"><svg xmlns="http://www.w3.org/2000/svg" version="1.1" xmlns:xlink="http://www.w3.org/1999/xlink" viewBox="0 0 200 200"><rect width="200" height="200" fill="url('#gradient')"></rect><defs><linearGradient id="SvgjsLinearGradient1058" gradientTransform="rotate(45 0.5 0.5)"><stop offset="0%" stop-color="#ffffff"></stop><stop offset="100%" stop-color="#ffffff"></stop></linearGradient></defs><g><g fill="#000000" transform="matrix(3.9835746704127946,0,0,3.9835746704127946,5.72671512934464,129.2629881407031)" stroke="#ffffff" stroke-width="0.2"><path d="M1.07-14.22L5.58-14.22L8.75-4.33L11.91-14.22L16.43-14.22L16.43 0L12.99 0L12.99-3.32L13.32-10.12L9.88 0L7.62 0L4.17-10.13L4.50-3.32L4.50 0L1.07 0L1.07-14.22ZM21.92-10.57L21.92 0L18.62 0L18.62-10.57L21.92-10.57ZM18.43-13.29L18.43-13.29Q18.43-13.99 18.94-14.44Q19.44-14.89 20.25-14.89Q21.06-14.89 21.57-14.44Q22.08-13.99 22.08-13.29Q22.08-12.59 21.57-12.14Q21.06-11.69 20.25-11.69Q19.44-11.69 18.94-12.14Q18.43-12.59 18.43-13.29ZM30.40-10.64L30.34-7.59L29.26-7.67Q27.71-7.67 27.27-6.69L27.27-6.69L27.27 0L23.97 0L23.97-10.57L27.06-10.57L27.17-9.21Q28.00-10.76 29.48-10.76L29.48-10.76Q30.01-10.76 30.40-10.64L30.40-10.64ZM30.77-4.82L30.76-5.38Q30.76-6.96 31.38-8.20Q31.99-9.43 33.14-10.10Q34.30-10.76 35.85-10.76L35.85-10.76Q38.22-10.76 39.59-9.29Q40.96-7.82 40.96-5.29L40.96-5.29L40.96-5.18Q40.96-2.71 39.58-1.25Q38.21 0.20 35.87 0.20L35.87 0.20Q33.61 0.20 32.25-1.16Q30.88-2.51 30.77-4.82L30.77-4.82ZM34.06-5.77L34.05-5.18Q34.05-3.71 34.51-3.03Q34.97-2.34 35.87-2.34L35.87-2.34Q37.63-2.34 37.67-5.05L37.67-5.05L37.67-5.38Q37.67-8.22 35.85-8.22L35.85-8.22Q34.20-8.22 34.06-5.77L34.06-5.77ZM44.44-3.19L44.44-3.19Q45.22-3.19 45.74-2.73Q46.26-2.27 46.26-1.54Q46.26-0.82 45.74-0.36Q45.22 0.11 44.44 0.11L44.44 0.11Q43.65 0.11 43.14-0.36Q42.63-0.83 42.63-1.54Q42.63-2.26 43.14-2.72Q43.65-3.19 44.44-3.19Z"></path></g></g></svg><style>@media (prefers-color-scheme: light) { :root { filter: none; } }
@media (prefers-color-scheme: dark) { :root { filter: none; } }
</style></svg>